<mxfile host="app.diagrams.net" agent="Mozilla/5.0 (Windows NT 10.0; Win64; x64) AppleWebKit/537.36 (KHTML, like Gecko) Chrome/134.0.0.0 Safari/537.36" version="26.1.0">
  <diagram name="Pagina-1" id="9TUK37YdYrvhZ6iX4fTc">
    <mxGraphModel dx="2100" dy="3126" grid="1" gridSize="10" guides="1" tooltips="1" connect="1" arrows="1" fold="1" page="1" pageScale="1" pageWidth="2000" pageHeight="2000" math="0" shadow="0">
      <root>
        <mxCell id="0" />
        <mxCell id="1" parent="0" />
        <mxCell id="Wa4nKcxV4dKl5yhTbQ3F-1" value="" style="rounded=1;whiteSpace=wrap;html=1;strokeWidth=2;" vertex="1" parent="1">
          <mxGeometry x="440" y="115" width="120" height="60" as="geometry" />
        </mxCell>
        <mxCell id="Wa4nKcxV4dKl5yhTbQ3F-2" value="Attack Pattern" style="text;strokeColor=none;align=center;fillColor=none;html=1;verticalAlign=middle;whiteSpace=wrap;rounded=0;" vertex="1" parent="1">
          <mxGeometry x="455" y="130" width="90" height="30" as="geometry" />
        </mxCell>
        <mxCell id="Wa4nKcxV4dKl5yhTbQ3F-3" value="" style="endArrow=classic;html=1;rounded=1;exitX=0;exitY=0.5;exitDx=0;exitDy=0;entryX=1;entryY=0.5;entryDx=0;entryDy=0;curved=0;" edge="1" parent="1" source="Wa4nKcxV4dKl5yhTbQ3F-1" target="Wa4nKcxV4dKl5yhTbQ3F-5">
          <mxGeometry relative="1" as="geometry">
            <mxPoint x="430" y="270" as="sourcePoint" />
            <mxPoint x="320" y="230" as="targetPoint" />
          </mxGeometry>
        </mxCell>
        <mxCell id="Wa4nKcxV4dKl5yhTbQ3F-4" value="mitigated-by" style="edgeLabel;resizable=0;html=1;;align=center;verticalAlign=middle;" connectable="0" vertex="1" parent="Wa4nKcxV4dKl5yhTbQ3F-3">
          <mxGeometry relative="1" as="geometry" />
        </mxCell>
        <mxCell id="Wa4nKcxV4dKl5yhTbQ3F-5" value="" style="rounded=1;whiteSpace=wrap;html=1;strokeWidth=2;" vertex="1" parent="1">
          <mxGeometry x="120" y="75" width="120" height="60" as="geometry" />
        </mxCell>
        <mxCell id="Wa4nKcxV4dKl5yhTbQ3F-6" value="Course of Action" style="text;strokeColor=none;align=center;fillColor=none;html=1;verticalAlign=middle;whiteSpace=wrap;rounded=0;" vertex="1" parent="1">
          <mxGeometry x="135" y="90" width="90" height="30" as="geometry" />
        </mxCell>
        <mxCell id="Wa4nKcxV4dKl5yhTbQ3F-8" value="" style="rounded=1;whiteSpace=wrap;html=1;strokeWidth=2;" vertex="1" parent="1">
          <mxGeometry x="120" y="165" width="120" height="60" as="geometry" />
        </mxCell>
        <mxCell id="Wa4nKcxV4dKl5yhTbQ3F-9" value="Data Component" style="text;strokeColor=none;align=center;fillColor=none;html=1;verticalAlign=middle;whiteSpace=wrap;rounded=0;" vertex="1" parent="1">
          <mxGeometry x="135" y="180" width="90" height="30" as="geometry" />
        </mxCell>
        <mxCell id="Wa4nKcxV4dKl5yhTbQ3F-11" value="" style="endArrow=classic;html=1;rounded=0;entryX=1;entryY=0.5;entryDx=0;entryDy=0;exitX=0;exitY=0.5;exitDx=0;exitDy=0;" edge="1" parent="1" source="Wa4nKcxV4dKl5yhTbQ3F-1" target="Wa4nKcxV4dKl5yhTbQ3F-8">
          <mxGeometry relative="1" as="geometry">
            <mxPoint x="480" y="120" as="sourcePoint" />
            <mxPoint x="570" y="210" as="targetPoint" />
          </mxGeometry>
        </mxCell>
        <mxCell id="Wa4nKcxV4dKl5yhTbQ3F-15" value="detected-by" style="edgeLabel;html=1;align=center;verticalAlign=middle;resizable=0;points=[];" vertex="1" connectable="0" parent="Wa4nKcxV4dKl5yhTbQ3F-11">
          <mxGeometry x="-0.0647" y="1" relative="1" as="geometry">
            <mxPoint as="offset" />
          </mxGeometry>
        </mxCell>
        <mxCell id="Wa4nKcxV4dKl5yhTbQ3F-16" value="" style="rounded=1;whiteSpace=wrap;html=1;strokeWidth=2;" vertex="1" parent="1">
          <mxGeometry x="120" y="240" width="120" height="60" as="geometry" />
        </mxCell>
        <mxCell id="Wa4nKcxV4dKl5yhTbQ3F-17" value="Malware" style="text;strokeColor=none;align=center;fillColor=none;html=1;verticalAlign=middle;whiteSpace=wrap;rounded=0;" vertex="1" parent="1">
          <mxGeometry x="135" y="255" width="90" height="30" as="geometry" />
        </mxCell>
        <mxCell id="Wa4nKcxV4dKl5yhTbQ3F-18" value="" style="rounded=1;whiteSpace=wrap;html=1;strokeWidth=2;" vertex="1" parent="1">
          <mxGeometry x="120" width="120" height="60" as="geometry" />
        </mxCell>
        <mxCell id="Wa4nKcxV4dKl5yhTbQ3F-19" value="Intrusion Set" style="text;strokeColor=none;align=center;fillColor=none;html=1;verticalAlign=middle;whiteSpace=wrap;rounded=0;strokeWidth=1;" vertex="1" parent="1">
          <mxGeometry x="135" y="15" width="90" height="30" as="geometry" />
        </mxCell>
        <mxCell id="Wa4nKcxV4dKl5yhTbQ3F-20" value="" style="endArrow=classic;html=1;rounded=0;entryX=1;entryY=0.5;entryDx=0;entryDy=0;exitX=0;exitY=0.5;exitDx=0;exitDy=0;" edge="1" parent="1" source="Wa4nKcxV4dKl5yhTbQ3F-1" target="Wa4nKcxV4dKl5yhTbQ3F-16">
          <mxGeometry relative="1" as="geometry">
            <mxPoint x="480" y="120" as="sourcePoint" />
            <mxPoint x="710" y="210" as="targetPoint" />
          </mxGeometry>
        </mxCell>
        <mxCell id="Wa4nKcxV4dKl5yhTbQ3F-21" value="used-by" style="edgeLabel;resizable=0;html=1;;align=center;verticalAlign=middle;" connectable="0" vertex="1" parent="Wa4nKcxV4dKl5yhTbQ3F-20">
          <mxGeometry relative="1" as="geometry" />
        </mxCell>
        <mxCell id="Wa4nKcxV4dKl5yhTbQ3F-23" value="" style="endArrow=classic;html=1;rounded=0;entryX=1;entryY=0.5;entryDx=0;entryDy=0;exitX=0;exitY=0.5;exitDx=0;exitDy=0;" edge="1" parent="1" source="Wa4nKcxV4dKl5yhTbQ3F-1" target="Wa4nKcxV4dKl5yhTbQ3F-18">
          <mxGeometry relative="1" as="geometry">
            <mxPoint x="600" y="105" as="sourcePoint" />
            <mxPoint x="690" y="195" as="targetPoint" />
          </mxGeometry>
        </mxCell>
        <mxCell id="Wa4nKcxV4dKl5yhTbQ3F-24" value="used-by" style="edgeLabel;resizable=0;html=1;;align=center;verticalAlign=middle;" connectable="0" vertex="1" parent="Wa4nKcxV4dKl5yhTbQ3F-23">
          <mxGeometry relative="1" as="geometry" />
        </mxCell>
        <mxCell id="Wa4nKcxV4dKl5yhTbQ3F-25" value="" style="rounded=1;whiteSpace=wrap;html=1;strokeWidth=2;" vertex="1" parent="1">
          <mxGeometry x="670" y="115" width="120" height="60" as="geometry" />
        </mxCell>
        <mxCell id="Wa4nKcxV4dKl5yhTbQ3F-26" value="Digital Artifact" style="text;strokeColor=none;align=center;fillColor=none;html=1;verticalAlign=middle;whiteSpace=wrap;rounded=0;" vertex="1" parent="1">
          <mxGeometry x="685" y="130" width="90" height="30" as="geometry" />
        </mxCell>
        <mxCell id="Wa4nKcxV4dKl5yhTbQ3F-27" value="" style="endArrow=classic;html=1;rounded=0;exitX=1;exitY=0.5;exitDx=0;exitDy=0;entryX=0;entryY=0.5;entryDx=0;entryDy=0;" edge="1" parent="1" source="Wa4nKcxV4dKl5yhTbQ3F-1" target="Wa4nKcxV4dKl5yhTbQ3F-25">
          <mxGeometry relative="1" as="geometry">
            <mxPoint x="470" y="265" as="sourcePoint" />
            <mxPoint x="570" y="265" as="targetPoint" />
          </mxGeometry>
        </mxCell>
        <mxCell id="Wa4nKcxV4dKl5yhTbQ3F-28" value="impacts" style="edgeLabel;resizable=0;html=1;;align=center;verticalAlign=middle;" connectable="0" vertex="1" parent="Wa4nKcxV4dKl5yhTbQ3F-27">
          <mxGeometry relative="1" as="geometry" />
        </mxCell>
        <mxCell id="Wa4nKcxV4dKl5yhTbQ3F-36" value="" style="rounded=1;whiteSpace=wrap;html=1;strokeWidth=2;" vertex="1" parent="1">
          <mxGeometry x="330" y="350" width="120" height="60" as="geometry" />
        </mxCell>
        <mxCell id="Wa4nKcxV4dKl5yhTbQ3F-37" value="Server" style="text;strokeColor=none;align=center;fillColor=none;html=1;verticalAlign=middle;whiteSpace=wrap;rounded=0;" vertex="1" parent="1">
          <mxGeometry x="345" y="365" width="90" height="30" as="geometry" />
        </mxCell>
        <mxCell id="Wa4nKcxV4dKl5yhTbQ3F-38" value="" style="endArrow=classic;html=1;rounded=0;exitX=0.5;exitY=1;exitDx=0;exitDy=0;dashed=1;" edge="1" parent="1" source="Wa4nKcxV4dKl5yhTbQ3F-25" target="Wa4nKcxV4dKl5yhTbQ3F-36">
          <mxGeometry relative="1" as="geometry">
            <mxPoint x="510" y="220" as="sourcePoint" />
            <mxPoint x="610" y="220" as="targetPoint" />
          </mxGeometry>
        </mxCell>
        <mxCell id="Wa4nKcxV4dKl5yhTbQ3F-39" value="Subclass of" style="edgeLabel;resizable=0;html=1;;align=center;verticalAlign=middle;" connectable="0" vertex="1" parent="Wa4nKcxV4dKl5yhTbQ3F-38">
          <mxGeometry relative="1" as="geometry" />
        </mxCell>
        <mxCell id="Wa4nKcxV4dKl5yhTbQ3F-40" value="" style="rounded=1;whiteSpace=wrap;html=1;strokeWidth=2;" vertex="1" parent="1">
          <mxGeometry x="200" y="450" width="120" height="60" as="geometry" />
        </mxCell>
        <mxCell id="Wa4nKcxV4dKl5yhTbQ3F-41" value="Mail Server" style="text;strokeColor=none;align=center;fillColor=none;html=1;verticalAlign=middle;whiteSpace=wrap;rounded=0;" vertex="1" parent="1">
          <mxGeometry x="215" y="465" width="90" height="30" as="geometry" />
        </mxCell>
        <mxCell id="Wa4nKcxV4dKl5yhTbQ3F-42" value="" style="rounded=1;whiteSpace=wrap;html=1;strokeWidth=2;" vertex="1" parent="1">
          <mxGeometry x="345" y="450" width="120" height="60" as="geometry" />
        </mxCell>
        <mxCell id="Wa4nKcxV4dKl5yhTbQ3F-43" value="DNS Server" style="text;strokeColor=none;align=center;fillColor=none;html=1;verticalAlign=middle;whiteSpace=wrap;rounded=0;" vertex="1" parent="1">
          <mxGeometry x="360" y="465" width="90" height="30" as="geometry" />
        </mxCell>
        <mxCell id="Wa4nKcxV4dKl5yhTbQ3F-44" value="" style="rounded=1;whiteSpace=wrap;html=1;strokeWidth=2;" vertex="1" parent="1">
          <mxGeometry x="490" y="450" width="120" height="60" as="geometry" />
        </mxCell>
        <mxCell id="Wa4nKcxV4dKl5yhTbQ3F-45" value="VPN Server" style="text;strokeColor=none;align=center;fillColor=none;html=1;verticalAlign=middle;whiteSpace=wrap;rounded=0;" vertex="1" parent="1">
          <mxGeometry x="505" y="465" width="90" height="30" as="geometry" />
        </mxCell>
        <mxCell id="Wa4nKcxV4dKl5yhTbQ3F-46" value="" style="endArrow=classic;html=1;rounded=0;exitX=0.5;exitY=1;exitDx=0;exitDy=0;dashed=1;entryX=0.447;entryY=-0.023;entryDx=0;entryDy=0;entryPerimeter=0;" edge="1" parent="1" source="Wa4nKcxV4dKl5yhTbQ3F-36" target="Wa4nKcxV4dKl5yhTbQ3F-40">
          <mxGeometry relative="1" as="geometry">
            <mxPoint x="400" y="285" as="sourcePoint" />
            <mxPoint x="400" y="360" as="targetPoint" />
          </mxGeometry>
        </mxCell>
        <mxCell id="Wa4nKcxV4dKl5yhTbQ3F-47" value="Subclass of" style="edgeLabel;resizable=0;html=1;;align=center;verticalAlign=middle;" connectable="0" vertex="1" parent="Wa4nKcxV4dKl5yhTbQ3F-46">
          <mxGeometry relative="1" as="geometry" />
        </mxCell>
        <mxCell id="Wa4nKcxV4dKl5yhTbQ3F-48" value="" style="endArrow=classic;html=1;rounded=0;exitX=0.5;exitY=1;exitDx=0;exitDy=0;dashed=1;entryX=0.5;entryY=0;entryDx=0;entryDy=0;" edge="1" parent="1" source="Wa4nKcxV4dKl5yhTbQ3F-36" target="Wa4nKcxV4dKl5yhTbQ3F-42">
          <mxGeometry relative="1" as="geometry">
            <mxPoint x="410" y="295" as="sourcePoint" />
            <mxPoint x="410" y="370" as="targetPoint" />
          </mxGeometry>
        </mxCell>
        <mxCell id="Wa4nKcxV4dKl5yhTbQ3F-49" value="Subclass of" style="edgeLabel;resizable=0;html=1;;align=center;verticalAlign=middle;" connectable="0" vertex="1" parent="Wa4nKcxV4dKl5yhTbQ3F-48">
          <mxGeometry relative="1" as="geometry" />
        </mxCell>
        <mxCell id="Wa4nKcxV4dKl5yhTbQ3F-50" value="" style="endArrow=classic;html=1;rounded=0;exitX=0.5;exitY=1;exitDx=0;exitDy=0;dashed=1;entryX=0.5;entryY=0;entryDx=0;entryDy=0;" edge="1" parent="1" source="Wa4nKcxV4dKl5yhTbQ3F-36" target="Wa4nKcxV4dKl5yhTbQ3F-44">
          <mxGeometry relative="1" as="geometry">
            <mxPoint x="420" y="305" as="sourcePoint" />
            <mxPoint x="420" y="380" as="targetPoint" />
          </mxGeometry>
        </mxCell>
        <mxCell id="Wa4nKcxV4dKl5yhTbQ3F-51" value="Subclass of" style="edgeLabel;resizable=0;html=1;;align=center;verticalAlign=middle;" connectable="0" vertex="1" parent="Wa4nKcxV4dKl5yhTbQ3F-50">
          <mxGeometry relative="1" as="geometry" />
        </mxCell>
        <mxCell id="Wa4nKcxV4dKl5yhTbQ3F-52" value="" style="endArrow=classic;html=1;rounded=0;exitX=0.5;exitY=1;exitDx=0;exitDy=0;dashed=1;entryX=0.5;entryY=0;entryDx=0;entryDy=0;" edge="1" parent="1" source="Wa4nKcxV4dKl5yhTbQ3F-40" target="Wa4nKcxV4dKl5yhTbQ3F-58">
          <mxGeometry relative="1" as="geometry">
            <mxPoint x="430" y="315" as="sourcePoint" />
            <mxPoint x="140" y="600" as="targetPoint" />
          </mxGeometry>
        </mxCell>
        <mxCell id="Wa4nKcxV4dKl5yhTbQ3F-53" value="Subclass of" style="edgeLabel;resizable=0;html=1;;align=center;verticalAlign=middle;" connectable="0" vertex="1" parent="Wa4nKcxV4dKl5yhTbQ3F-52">
          <mxGeometry relative="1" as="geometry" />
        </mxCell>
        <mxCell id="Wa4nKcxV4dKl5yhTbQ3F-54" value="" style="endArrow=classic;html=1;rounded=0;exitX=0.5;exitY=1;exitDx=0;exitDy=0;dashed=1;entryX=0.5;entryY=0;entryDx=0;entryDy=0;" edge="1" parent="1" source="Wa4nKcxV4dKl5yhTbQ3F-40" target="Wa4nKcxV4dKl5yhTbQ3F-61">
          <mxGeometry relative="1" as="geometry">
            <mxPoint x="440" y="325" as="sourcePoint" />
            <mxPoint x="310" y="590" as="targetPoint" />
          </mxGeometry>
        </mxCell>
        <mxCell id="Wa4nKcxV4dKl5yhTbQ3F-55" value="Subclass of" style="edgeLabel;resizable=0;html=1;;align=center;verticalAlign=middle;" connectable="0" vertex="1" parent="Wa4nKcxV4dKl5yhTbQ3F-54">
          <mxGeometry relative="1" as="geometry" />
        </mxCell>
        <mxCell id="Wa4nKcxV4dKl5yhTbQ3F-56" value="" style="endArrow=classic;html=1;rounded=0;dashed=1;exitX=0.5;exitY=1;exitDx=0;exitDy=0;entryX=0.5;entryY=0;entryDx=0;entryDy=0;" edge="1" parent="1" source="Wa4nKcxV4dKl5yhTbQ3F-40" target="Wa4nKcxV4dKl5yhTbQ3F-64">
          <mxGeometry relative="1" as="geometry">
            <mxPoint x="420" y="550" as="sourcePoint" />
            <mxPoint x="410" y="600" as="targetPoint" />
          </mxGeometry>
        </mxCell>
        <mxCell id="Wa4nKcxV4dKl5yhTbQ3F-57" value="Subclass of" style="edgeLabel;resizable=0;html=1;;align=center;verticalAlign=middle;" connectable="0" vertex="1" parent="Wa4nKcxV4dKl5yhTbQ3F-56">
          <mxGeometry relative="1" as="geometry" />
        </mxCell>
        <mxCell id="Wa4nKcxV4dKl5yhTbQ3F-58" value="" style="rounded=1;whiteSpace=wrap;html=1;strokeWidth=2;" vertex="1" parent="1">
          <mxGeometry x="70" y="620.65" width="120" height="60" as="geometry" />
        </mxCell>
        <mxCell id="Wa4nKcxV4dKl5yhTbQ3F-59" value="POP3 Server" style="text;strokeColor=none;align=center;fillColor=none;html=1;verticalAlign=middle;whiteSpace=wrap;rounded=0;" vertex="1" parent="1">
          <mxGeometry x="85" y="635.65" width="90" height="30" as="geometry" />
        </mxCell>
        <mxCell id="Wa4nKcxV4dKl5yhTbQ3F-61" value="" style="rounded=1;whiteSpace=wrap;html=1;strokeWidth=2;" vertex="1" parent="1">
          <mxGeometry x="208.31" y="620.65" width="120" height="60" as="geometry" />
        </mxCell>
        <mxCell id="Wa4nKcxV4dKl5yhTbQ3F-62" value="IMAP Server" style="text;strokeColor=none;align=center;fillColor=none;html=1;verticalAlign=middle;whiteSpace=wrap;rounded=0;" vertex="1" parent="1">
          <mxGeometry x="223.31" y="635.65" width="90" height="30" as="geometry" />
        </mxCell>
        <mxCell id="Wa4nKcxV4dKl5yhTbQ3F-64" value="" style="rounded=1;whiteSpace=wrap;html=1;strokeWidth=2;" vertex="1" parent="1">
          <mxGeometry x="343.30999999999995" y="620.65" width="120" height="60" as="geometry" />
        </mxCell>
        <mxCell id="Wa4nKcxV4dKl5yhTbQ3F-65" value="SMTP Server" style="text;strokeColor=none;align=center;fillColor=none;html=1;verticalAlign=middle;whiteSpace=wrap;rounded=0;" vertex="1" parent="1">
          <mxGeometry x="358.30999999999995" y="635.65" width="90" height="30" as="geometry" />
        </mxCell>
        <mxCell id="Wa4nKcxV4dKl5yhTbQ3F-67" value="" style="endArrow=classic;html=1;rounded=0;exitX=0.5;exitY=1;exitDx=0;exitDy=0;dashed=1;entryX=0.5;entryY=0;entryDx=0;entryDy=0;" edge="1" parent="1" source="Wa4nKcxV4dKl5yhTbQ3F-25" target="Wa4nKcxV4dKl5yhTbQ3F-73">
          <mxGeometry relative="1" as="geometry">
            <mxPoint x="740" y="185" as="sourcePoint" />
            <mxPoint x="740" y="310" as="targetPoint" />
          </mxGeometry>
        </mxCell>
        <mxCell id="Wa4nKcxV4dKl5yhTbQ3F-68" value="Subclass of" style="edgeLabel;resizable=0;html=1;;align=center;verticalAlign=middle;" connectable="0" vertex="1" parent="Wa4nKcxV4dKl5yhTbQ3F-67">
          <mxGeometry relative="1" as="geometry" />
        </mxCell>
        <mxCell id="Wa4nKcxV4dKl5yhTbQ3F-69" value="" style="endArrow=classic;html=1;rounded=0;exitX=0.5;exitY=1;exitDx=0;exitDy=0;dashed=1;entryX=0.5;entryY=0;entryDx=0;entryDy=0;" edge="1" parent="1" source="Wa4nKcxV4dKl5yhTbQ3F-25" target="Wa4nKcxV4dKl5yhTbQ3F-75">
          <mxGeometry relative="1" as="geometry">
            <mxPoint x="750" y="195" as="sourcePoint" />
            <mxPoint x="840" y="290" as="targetPoint" />
          </mxGeometry>
        </mxCell>
        <mxCell id="Wa4nKcxV4dKl5yhTbQ3F-70" value="Subclass of" style="edgeLabel;resizable=0;html=1;;align=center;verticalAlign=middle;" connectable="0" vertex="1" parent="Wa4nKcxV4dKl5yhTbQ3F-69">
          <mxGeometry relative="1" as="geometry" />
        </mxCell>
        <mxCell id="Wa4nKcxV4dKl5yhTbQ3F-71" value="" style="endArrow=classic;html=1;rounded=0;exitX=0.5;exitY=1;exitDx=0;exitDy=0;dashed=1;entryX=0.5;entryY=0;entryDx=0;entryDy=0;" edge="1" parent="1" source="Wa4nKcxV4dKl5yhTbQ3F-25" target="Wa4nKcxV4dKl5yhTbQ3F-77">
          <mxGeometry relative="1" as="geometry">
            <mxPoint x="760" y="205" as="sourcePoint" />
            <mxPoint x="1020" y="280" as="targetPoint" />
          </mxGeometry>
        </mxCell>
        <mxCell id="Wa4nKcxV4dKl5yhTbQ3F-72" value="Subclass of" style="edgeLabel;resizable=0;html=1;;align=center;verticalAlign=middle;" connectable="0" vertex="1" parent="Wa4nKcxV4dKl5yhTbQ3F-71">
          <mxGeometry relative="1" as="geometry" />
        </mxCell>
        <mxCell id="Wa4nKcxV4dKl5yhTbQ3F-73" value="" style="rounded=1;whiteSpace=wrap;html=1;strokeWidth=2;" vertex="1" parent="1">
          <mxGeometry x="550" y="310" width="120" height="60" as="geometry" />
        </mxCell>
        <mxCell id="Wa4nKcxV4dKl5yhTbQ3F-74" value="Desktop Computer" style="text;strokeColor=none;align=center;fillColor=none;html=1;verticalAlign=middle;whiteSpace=wrap;rounded=0;" vertex="1" parent="1">
          <mxGeometry x="565" y="325" width="90" height="30" as="geometry" />
        </mxCell>
        <mxCell id="Wa4nKcxV4dKl5yhTbQ3F-75" value="" style="rounded=1;whiteSpace=wrap;html=1;strokeWidth=2;" vertex="1" parent="1">
          <mxGeometry x="680" y="310" width="120" height="60" as="geometry" />
        </mxCell>
        <mxCell id="Wa4nKcxV4dKl5yhTbQ3F-76" value="Mobile Phone" style="text;strokeColor=none;align=center;fillColor=none;html=1;verticalAlign=middle;whiteSpace=wrap;rounded=0;" vertex="1" parent="1">
          <mxGeometry x="695" y="325" width="90" height="30" as="geometry" />
        </mxCell>
        <mxCell id="Wa4nKcxV4dKl5yhTbQ3F-77" value="" style="rounded=1;whiteSpace=wrap;html=1;strokeWidth=2;" vertex="1" parent="1">
          <mxGeometry x="810" y="310" width="120" height="60" as="geometry" />
        </mxCell>
        <mxCell id="Wa4nKcxV4dKl5yhTbQ3F-78" value="Laptop Computer" style="text;strokeColor=none;align=center;fillColor=none;html=1;verticalAlign=middle;whiteSpace=wrap;rounded=0;" vertex="1" parent="1">
          <mxGeometry x="825" y="325" width="90" height="30" as="geometry" />
        </mxCell>
        <mxCell id="Wa4nKcxV4dKl5yhTbQ3F-79" value="" style="rounded=1;whiteSpace=wrap;html=1;strokeWidth=2;" vertex="1" parent="1">
          <mxGeometry x="940" y="310" width="120" height="60" as="geometry" />
        </mxCell>
        <mxCell id="Wa4nKcxV4dKl5yhTbQ3F-80" value="Firewall" style="text;strokeColor=none;align=center;fillColor=none;html=1;verticalAlign=middle;whiteSpace=wrap;rounded=0;" vertex="1" parent="1">
          <mxGeometry x="955" y="325" width="90" height="30" as="geometry" />
        </mxCell>
        <mxCell id="Wa4nKcxV4dKl5yhTbQ3F-81" value="" style="rounded=1;whiteSpace=wrap;html=1;strokeWidth=2;" vertex="1" parent="1">
          <mxGeometry x="1070" y="310" width="120" height="60" as="geometry" />
        </mxCell>
        <mxCell id="Wa4nKcxV4dKl5yhTbQ3F-82" value="Wireless Access Point" style="text;strokeColor=none;align=center;fillColor=none;html=1;verticalAlign=middle;whiteSpace=wrap;rounded=0;" vertex="1" parent="1">
          <mxGeometry x="1085" y="325" width="90" height="30" as="geometry" />
        </mxCell>
        <mxCell id="Wa4nKcxV4dKl5yhTbQ3F-83" value="" style="rounded=1;whiteSpace=wrap;html=1;strokeWidth=2;" vertex="1" parent="1">
          <mxGeometry x="1220" y="310" width="120" height="60" as="geometry" />
        </mxCell>
        <mxCell id="Wa4nKcxV4dKl5yhTbQ3F-84" value="Router" style="text;strokeColor=none;align=center;fillColor=none;html=1;verticalAlign=middle;whiteSpace=wrap;rounded=0;" vertex="1" parent="1">
          <mxGeometry x="1235" y="325" width="90" height="30" as="geometry" />
        </mxCell>
        <mxCell id="Wa4nKcxV4dKl5yhTbQ3F-85" value="" style="rounded=1;whiteSpace=wrap;html=1;strokeWidth=2;" vertex="1" parent="1">
          <mxGeometry x="1350" y="310" width="120" height="60" as="geometry" />
        </mxCell>
        <mxCell id="Wa4nKcxV4dKl5yhTbQ3F-86" value="Email Filtering" style="text;strokeColor=none;align=center;fillColor=none;html=1;verticalAlign=middle;whiteSpace=wrap;rounded=0;" vertex="1" parent="1">
          <mxGeometry x="1365" y="325" width="90" height="30" as="geometry" />
        </mxCell>
        <mxCell id="Wa4nKcxV4dKl5yhTbQ3F-87" value="" style="endArrow=classic;html=1;rounded=0;exitX=0.5;exitY=1;exitDx=0;exitDy=0;dashed=1;entryX=0.5;entryY=0;entryDx=0;entryDy=0;" edge="1" parent="1" source="Wa4nKcxV4dKl5yhTbQ3F-25" target="Wa4nKcxV4dKl5yhTbQ3F-79">
          <mxGeometry relative="1" as="geometry">
            <mxPoint x="740" y="185" as="sourcePoint" />
            <mxPoint x="880" y="320" as="targetPoint" />
          </mxGeometry>
        </mxCell>
        <mxCell id="Wa4nKcxV4dKl5yhTbQ3F-88" value="Subclass of" style="edgeLabel;resizable=0;html=1;;align=center;verticalAlign=middle;" connectable="0" vertex="1" parent="Wa4nKcxV4dKl5yhTbQ3F-87">
          <mxGeometry relative="1" as="geometry" />
        </mxCell>
        <mxCell id="Wa4nKcxV4dKl5yhTbQ3F-89" value="" style="endArrow=classic;html=1;rounded=0;exitX=0.5;exitY=1;exitDx=0;exitDy=0;dashed=1;entryX=0.5;entryY=0;entryDx=0;entryDy=0;" edge="1" parent="1" source="Wa4nKcxV4dKl5yhTbQ3F-25" target="Wa4nKcxV4dKl5yhTbQ3F-81">
          <mxGeometry relative="1" as="geometry">
            <mxPoint x="750" y="195" as="sourcePoint" />
            <mxPoint x="890" y="330" as="targetPoint" />
          </mxGeometry>
        </mxCell>
        <mxCell id="Wa4nKcxV4dKl5yhTbQ3F-90" value="Subclass of" style="edgeLabel;resizable=0;html=1;;align=center;verticalAlign=middle;" connectable="0" vertex="1" parent="Wa4nKcxV4dKl5yhTbQ3F-89">
          <mxGeometry relative="1" as="geometry" />
        </mxCell>
        <mxCell id="Wa4nKcxV4dKl5yhTbQ3F-91" value="" style="endArrow=classic;html=1;rounded=0;exitX=0.5;exitY=1;exitDx=0;exitDy=0;dashed=1;entryX=0.5;entryY=0;entryDx=0;entryDy=0;" edge="1" parent="1" source="Wa4nKcxV4dKl5yhTbQ3F-25" target="Wa4nKcxV4dKl5yhTbQ3F-83">
          <mxGeometry relative="1" as="geometry">
            <mxPoint x="760" y="205" as="sourcePoint" />
            <mxPoint x="900" y="340" as="targetPoint" />
          </mxGeometry>
        </mxCell>
        <mxCell id="Wa4nKcxV4dKl5yhTbQ3F-92" value="Subclass of" style="edgeLabel;resizable=0;html=1;;align=center;verticalAlign=middle;" connectable="0" vertex="1" parent="Wa4nKcxV4dKl5yhTbQ3F-91">
          <mxGeometry relative="1" as="geometry" />
        </mxCell>
        <mxCell id="Wa4nKcxV4dKl5yhTbQ3F-93" value="" style="endArrow=classic;html=1;rounded=0;exitX=0.5;exitY=1;exitDx=0;exitDy=0;dashed=1;entryX=0.5;entryY=0;entryDx=0;entryDy=0;" edge="1" parent="1" source="Wa4nKcxV4dKl5yhTbQ3F-25" target="Wa4nKcxV4dKl5yhTbQ3F-85">
          <mxGeometry relative="1" as="geometry">
            <mxPoint x="770" y="215" as="sourcePoint" />
            <mxPoint x="910" y="350" as="targetPoint" />
          </mxGeometry>
        </mxCell>
        <mxCell id="Wa4nKcxV4dKl5yhTbQ3F-94" value="Subclass of" style="edgeLabel;resizable=0;html=1;;align=center;verticalAlign=middle;" connectable="0" vertex="1" parent="Wa4nKcxV4dKl5yhTbQ3F-93">
          <mxGeometry relative="1" as="geometry" />
        </mxCell>
      </root>
    </mxGraphModel>
  </diagram>
</mxfile>
